<svg width="111" height="21" viewBox="0 0 111 21" fill="none" xmlns="http://www.w3.org/2000/svg">
<path d="M51.6413 10.3171C51.6413 13.5557 51.6316 16.7944 51.6509 20.0331C51.6509 20.5068 51.5161 20.6422 51.0539 20.6229C50.1679 20.5938 49.2916 20.6035 48.4057 20.6229C48.0687 20.6325 47.9435 20.5068 47.9628 20.1781C47.982 19.6464 47.9724 19.1147 47.9628 18.583C47.9628 18.4573 47.8761 18.3316 47.8376 18.2059C47.7413 18.2833 47.6161 18.3413 47.5583 18.4379C46.2487 20.3715 44.3035 21.0096 42.1369 20.9999C37.9769 20.9709 35.1458 18.3509 34.4236 14.5322C34.0384 12.4826 34.1732 10.4524 35.0688 8.5382C36.3206 5.86024 38.391 4.32307 41.3665 4.05237C43.2635 3.88802 44.9969 4.29407 46.5183 5.47353C46.7976 5.68622 47.0287 5.96658 47.2887 6.19861C47.385 6.28562 47.5102 6.35329 47.6257 6.43063C47.6642 6.28562 47.7605 6.1406 47.7605 5.99559C47.7702 4.22639 47.7702 2.44753 47.7702 0.678337C47.7702 0.0112643 47.7702 0.0112644 48.4154 0.0112644C49.3109 0.0112644 50.2161 0.0305998 51.1116 0.00159667C51.545 -0.0177388 51.6509 0.136945 51.6509 0.552657C51.6316 3.81068 51.6413 7.05904 51.6413 10.3171ZM47.8761 12.5116C47.8761 9.63065 45.8154 7.49408 43.0517 7.46508C40.4132 7.44574 38.0925 9.37929 38.1117 12.502C38.131 15.6536 40.471 17.5002 43.0035 17.5002C45.7865 17.5002 47.8665 15.3733 47.8761 12.5116Z" fill="#1C1C1C"/>
<path d="M110.99 10.3643C110.99 13.5546 110.99 16.745 110.99 19.9353C110.99 20.612 110.99 20.612 110.297 20.612C109.498 20.612 108.689 20.5927 107.89 20.6217C107.504 20.6314 107.331 20.5154 107.35 20.1093C107.379 19.5776 107.36 19.0459 107.35 18.5142C107.35 18.4078 107.264 18.3015 107.206 18.1855C107.119 18.2435 107.004 18.2918 106.946 18.3691C105.819 20.0997 104.134 20.7861 102.179 20.9408C99.7334 21.1341 97.5764 20.4574 95.8431 18.6688C94.6201 17.412 93.975 15.8652 93.7246 14.154C93.4453 12.2785 93.5705 10.4223 94.3698 8.67242C95.6216 5.91712 97.7016 4.30261 100.764 4.04159C102.449 3.89657 104.019 4.19627 105.434 5.1437C105.867 5.43374 106.233 5.83978 106.638 6.17815C106.753 6.27483 106.888 6.33283 107.023 6.41018C107.071 6.26516 107.158 6.12014 107.158 5.96546C107.177 5.26938 107.167 4.58298 107.167 3.8869C107.167 2.75578 107.177 1.63432 107.158 0.503201C107.148 0.12616 107.273 -0.00918785 107.659 0.000479864C108.593 0.0198153 109.517 0.029483 110.451 0.000479864C110.875 -0.00918785 111 0.135828 111 0.55154C110.981 3.8289 110.99 7.09658 110.99 10.3643ZM102.353 17.499C105.145 17.5087 107.283 15.3335 107.283 12.4815C107.283 9.64886 105.155 7.47362 102.401 7.46396C99.6082 7.46396 97.4994 9.60052 97.4897 12.4332C97.4705 15.3335 99.5505 17.499 102.353 17.499Z" fill="#1C1C1C"/>
<path d="M0.00962955 10.3076C0.00962955 7.06887 0.0192591 3.83019 0 0.591501C0 0.117783 0.144443 -0.0175653 0.597032 0.00177018C1.49258 0.0307733 2.39776 0.0307733 3.2933 0.00177018C3.75552 -0.0175653 3.89997 0.117783 3.89034 0.591501C3.87108 3.80118 3.88071 7.0012 3.88071 10.2109C3.88071 10.3366 3.87108 10.4719 3.88071 10.5976C3.89997 10.7523 3.94811 10.8973 3.98663 11.0423C4.11182 10.965 4.26589 10.907 4.37181 10.8006C5.89328 9.16677 7.43401 7.54259 8.92659 5.87974C10.2362 4.42958 10.2169 4.41025 12.1332 4.41025C13.0191 4.41025 13.8954 4.41025 14.7814 4.41025C14.8969 4.41025 15.0125 4.46826 15.128 4.49726C15.0606 4.58427 15.0028 4.68094 14.9258 4.75829C12.8747 6.93352 10.8332 9.11843 8.77252 11.284C8.46437 11.603 8.43548 11.8061 8.734 12.1638C11.0162 14.8707 13.2695 17.597 15.5325 20.3136C15.5902 20.3813 15.6288 20.4683 15.6769 20.5457C15.5902 20.565 15.4939 20.594 15.4073 20.594C13.934 20.594 12.451 20.6133 10.9777 20.5747C10.7466 20.565 10.4481 20.362 10.294 20.159C8.39697 17.742 6.5192 15.3154 4.63181 12.8888C4.44885 12.6568 4.21774 12.4828 4.00589 12.2798C3.96737 12.5698 3.89034 12.8598 3.89034 13.1499C3.88071 15.3928 3.88071 17.626 3.88071 19.8689C3.88071 20.594 3.88071 20.594 3.13923 20.594C2.27257 20.594 1.40591 20.5747 0.539255 20.6037C0.115555 20.6423 0 20.4973 0 20.072C0.0192591 16.8139 0.00962955 13.5656 0.00962955 10.3076Z" fill="#1C1C1C"/>
<path d="M32.3446 12.5346C32.3735 17.0688 29.0705 20.5975 24.4965 20.9262C22.5032 21.0712 20.6254 20.7715 18.8921 19.7661C16.4366 18.3449 15.1077 16.1503 14.8573 13.337C14.6358 10.8718 15.2521 8.63851 16.9277 6.76298C18.2951 5.23548 20.0476 4.40405 22.0313 4.10435C24.198 3.77565 26.3069 4.03668 28.2231 5.14847C30.8231 6.65663 32.1905 8.95755 32.3253 11.9739C32.3253 12.1479 32.335 12.3122 32.3446 12.5346ZM18.7091 12.4573C18.7091 15.3382 20.7699 17.4845 23.5432 17.4941C26.3454 17.5038 28.4831 15.3576 28.5024 12.5056C28.5217 9.67296 26.3743 7.47839 23.5817 7.46872C20.7988 7.46872 18.7091 9.60529 18.7091 12.4573Z" fill="#1C1C1C"/>
<path d="M74.9784 14.9629C74.9784 16.6547 74.9688 18.3466 74.9881 20.0384C74.9977 20.4734 74.8725 20.6378 74.4199 20.6185C73.6496 20.5798 72.8792 20.5798 72.1089 20.6185C71.6466 20.6378 71.5215 20.4638 71.5503 20.0287C71.5792 19.5937 71.56 19.1586 71.5503 18.7236C71.5503 18.6076 71.4733 18.4916 71.4348 18.3756C71.3289 18.4336 71.194 18.4626 71.1266 18.5496C69.9711 20.2414 68.2763 20.9278 66.3311 20.9665C64.1838 21.0052 62.229 20.4734 60.9097 18.5399C59.8505 16.9834 59.9371 13.7737 62.123 12.2752C63.3652 11.4245 64.7519 10.9894 66.2156 10.8444C67.7467 10.6897 69.2874 10.6704 70.8185 10.6027C71.5311 10.5737 71.6081 10.4867 71.5503 9.76162C71.377 7.83775 69.9615 7.03532 68.257 6.88064C66.543 6.73563 64.983 7.19001 63.6252 8.26312C63.5193 8.34047 63.2401 8.34047 63.1534 8.26312C62.6141 7.7604 62.1038 7.21901 61.5742 6.70662C61.3334 6.4746 61.5164 6.34892 61.6705 6.2039C62.6527 5.31447 63.7986 4.71507 65.0793 4.38637C67.1304 3.86431 69.1911 3.76764 71.2422 4.42504C73.4474 5.14045 74.6703 6.73563 74.8725 9.00754C75.0459 10.9798 75.0073 12.9616 75.0555 14.9435C75.017 14.9629 74.9977 14.9629 74.9784 14.9629ZM69.6822 13.2613C69.6822 13.2517 69.6822 13.242 69.6822 13.2227C69.0467 13.271 68.4015 13.2903 67.7659 13.3677C66.8126 13.4934 65.8689 13.6867 65.0408 14.2281C64.5882 14.5181 64.2801 14.9048 64.1741 15.4462C63.9526 16.4904 64.54 17.5151 65.6956 17.8438C66.3697 18.0372 67.1208 18.0855 67.8237 18.0469C69.2007 17.9695 70.3274 17.4088 70.9437 16.065C71.3096 15.2626 71.3096 14.4118 71.2615 13.5514C71.2518 13.445 71.0592 13.271 70.9341 13.2613C70.52 13.242 70.0963 13.2613 69.6822 13.2613Z" fill="#1C1C1C"/>
<path d="M77.0165 12.5153C77.0165 10.0307 77.0165 7.5558 77.0165 5.0712C77.0165 4.43313 77.0261 4.4138 77.6617 4.4138C78.4802 4.4138 79.2987 4.43313 80.1172 4.40413C80.5505 4.39446 80.6854 4.55881 80.6661 4.97452C80.6372 5.45791 80.6468 5.9413 80.6661 6.42468C80.6757 6.5987 80.7624 6.77272 80.8105 6.94674C80.9261 6.82106 81.0609 6.71471 81.1476 6.57936C81.9083 5.36123 82.8905 4.42346 84.3446 4.1431C86.7905 3.65971 89.4964 4.23011 90.8542 6.60837C91.4897 7.71049 91.6823 8.93829 91.692 10.1854C91.7209 13.4918 91.692 16.7885 91.7112 20.0948C91.7112 20.4912 91.5957 20.6266 91.1912 20.6169C90.2957 20.5879 89.3905 20.6072 88.4949 20.6072C87.8305 20.6072 87.8305 20.6072 87.8305 19.9595C87.8305 17.2719 87.8498 14.5746 87.8112 11.8869C87.8016 11.0749 87.6764 10.2434 87.4453 9.47001C86.9927 7.98118 85.7216 7.25611 84.1809 7.4978C82.1876 7.80717 80.955 9.19932 80.9261 11.2392C80.8876 14.1492 80.8683 17.0688 80.8683 19.9788C80.8683 20.4525 80.7528 20.6362 80.252 20.6169C79.3565 20.5782 78.4513 20.5879 77.5557 20.6169C77.1224 20.6266 77.0069 20.4622 77.0069 20.0562C77.0261 17.5426 77.0165 15.029 77.0165 12.5153Z" fill="#1C1C1C"/>
<path d="M58.3905 10.3101C58.3905 13.5487 58.3808 16.7778 58.4001 20.0164C58.4001 20.4708 58.2942 20.6448 57.8127 20.6255C56.869 20.5868 55.9253 20.6062 54.9719 20.6255C54.606 20.6352 54.5001 20.4998 54.5001 20.1518C54.5097 13.5971 54.5097 7.04236 54.5001 0.497316C54.5001 0.091272 54.6542 0.00426253 55.0105 0.0139303C55.9542 0.0332657 56.9075 0.0429334 57.8512 0.0139303C58.2749 0.00426253 58.4001 0.139611 58.4001 0.56499C58.3808 3.80368 58.3905 7.0617 58.3905 10.3101Z" fill="#1C1C1C"/>
</svg>
